# xmcd
#
# Track frame offsets:
#	150
#	14585
#	27968
#	40981
#	54941
#	67497
#	81716
#	94550
#	107011
#	121119
#	135653
#	149385
#
# Disc length: 2698 seconds
#
# Revision: 0
# Processed by: cddbd v1.5.1PL0 Copyright (c) Steve Scherf et al.
# Submitted via: dBpowerAMP V4.0
#
DISCID=aa0a880c
DTITLE=Mel Street - His Greatest Hits
DYEAR=1900
DGENRE=Country
TTITLE0=Borrowed Angel 
TTITLE1=Lust Affair
TTITLE2=Even If I Have To Steal
TTITLE3=Forbidden Angel
TTITLE4=The Town Where You Live
TTITLE5=You Make Me Feel More Like A Man
TTITLE6=Lovin' On Back Streets
TTITLE7=The Devil In Your Kisses
TTITLE8=Lovin' On Borrowed Time
TTITLE9=Walk Softly On The Bridges
TTITLE10=Smokey Mountain Memories
TTITLE11=Live Performances - I Met A Friend Of Yours Today/Trilogy of Hits
EXTD=
EXTT0=
EXTT1=
EXTT2=
EXTT3=
EXTT4=
EXTT5=
EXTT6=
EXTT7=
EXTT8=
EXTT9=
EXTT10=
EXTT11=
PLAYORDER=
